# Blender v3.5.1 OBJ File: '-point ring.blend'
# www.blender.org
mtllib -point ring.mtl
o Cube_Cube.001
v -0.008066 -0.373589 7.007899
v -0.007254 0.373589 6.303106
v -7.007899 -0.373589 -0.008066
v -6.303106 0.373589 -0.007254
v 7.007899 -0.373589 0.008066
v 6.303106 0.373589 0.007254
v 0.008066 -0.373589 -7.007899
v 0.007254 0.373589 -6.303106
v -0.008066 0.373589 7.007899
v -7.007899 0.373589 -0.008066
v 0.008066 0.373589 -7.007899
v 7.007899 0.373589 0.008066
v -0.007254 -0.373589 6.303106
v -6.303106 -0.373589 -0.007254
v 6.303106 -0.373589 0.007254
v 0.007254 -0.373589 -6.303106
vt 0.375000 0.000000
vt 0.625000 0.000000
vt 0.625000 0.250000
vt 0.375000 0.250000
vt 0.625000 0.500000
vt 0.375000 0.500000
vt 0.625000 0.750000
vt 0.375000 0.750000
vt 0.625000 1.000000
vt 0.375000 1.000000
vt 0.637571 0.737429
vt 0.637571 0.512571
vt 0.637571 0.512571
vt 0.637571 0.737429
vt 0.862429 0.737429
vt 0.862429 0.512571
vt 0.875000 0.500000
vt 0.875000 0.750000
vt 0.862429 0.737429
vt 0.862429 0.512571
vn -0.7079 0.0000 0.7063
vn -0.7063 0.0000 -0.7079
vn 0.7079 0.0000 -0.7063
vn 0.7063 0.0000 0.7079
vn 0.0000 1.0000 0.0000
vn 0.0000 -1.0000 0.0000
usemtl Material.001
s off
f 1/1/1 9/2/1 10/3/1 3/4/1
f 3/4/2 10/3/2 11/5/2 7/6/2
f 7/6/3 11/5/3 12/7/3 5/8/3
f 5/8/4 12/7/4 9/9/4 1/10/4
f 6/11/1 8/12/1 16/13/1 15/14/1
f 2/15/5 4/16/5 10/17/5 9/18/5
f 4/16/5 8/12/5 11/5/5 10/17/5
f 8/12/5 6/11/5 12/7/5 11/5/5
f 6/11/5 2/15/5 9/18/5 12/7/5
f 4/16/3 2/15/3 13/19/3 14/20/3
f 2/15/2 6/11/2 15/14/2 13/19/2
f 8/12/4 4/16/4 14/20/4 16/13/4
f 1/10/6 13/19/6 15/14/6 5/8/6
f 3/4/6 14/20/6 13/19/6 1/10/6
f 7/6/6 16/13/6 14/20/6 3/4/6
f 5/8/6 15/14/6 16/13/6 7/6/6
