# Blender v3.5.1 OBJ File: 'ring.blend'
# www.blender.org
mtllib death ring.mtl
o death_Cube.005
v 0.169677 -0.696810 -5.162093
v -0.416258 0.314180 -4.989103
v -0.421744 -0.867055 -6.170350
v -1.007679 0.143935 -5.997360
v 1.007679 -0.110072 -5.752716
v 0.421744 0.900918 -5.579726
v 0.416258 -0.280317 -6.760973
v -0.169677 0.730673 -6.587984
v -3.531349 -0.679622 -3.772370
v -3.821976 0.329996 -3.232414
v -4.662720 -0.847360 -4.067682
v -4.953346 0.162259 -3.527726
v -3.355619 -0.089809 -4.780627
v -3.646245 0.919810 -4.240672
v -4.486989 -0.257546 -5.075939
v -4.777616 0.752072 -4.535983
v -5.165699 -0.672032 -0.172639
v -4.988029 0.335411 0.417984
v -6.174748 -0.840338 0.417984
v -5.997078 0.167105 1.008609
v -5.753573 -0.078672 -1.007907
v -5.575903 0.928771 -0.417283
v -6.762623 -0.246977 -0.417284
v -6.584953 0.760466 0.173340
v -3.775991 -0.678486 3.528427
v -3.231358 0.327253 3.823738
v -4.072103 -0.850103 4.659007
v -3.527471 0.155637 4.954318
v -4.781494 -0.083187 3.355436
v -4.236862 0.922553 3.650749
v -5.077606 -0.254803 4.486016
v -4.532974 0.750936 4.781329
v -0.176298 -0.695203 5.162793
v 0.419001 0.310301 4.989803
v 0.413516 -0.870934 6.171051
v 1.008816 0.134570 5.998062
v -1.008815 -0.100707 5.753418
v -0.413515 0.904797 5.580427
v -0.419000 -0.276437 6.761674
v 0.176299 0.729066 6.588685
v 3.524729 -0.712391 3.773071
v 3.824719 0.294484 3.233114
v 4.654493 -0.890629 4.068382
v 4.954484 0.116246 3.528425
v 3.354484 -0.120970 4.781328
v 3.654474 0.885905 4.241372
v 4.484248 -0.299209 5.076639
v 4.784238 0.707667 4.536684
v 5.159077 -0.719981 0.173340
v 4.990772 0.289069 -0.417283
v 6.166521 -0.897651 -0.417284
v 5.998215 0.111399 -1.007907
v 5.752437 -0.132106 1.008608
v 5.584132 0.876944 0.417985
v 6.759880 -0.309776 0.417984
v 6.591574 0.699273 -0.172638
v 3.769369 -0.713527 -3.527727
v 3.234100 0.297227 -3.823039
v 4.063873 -0.887886 -4.658307
v 3.528605 0.122868 -4.953619
v 4.780357 -0.127592 -3.354738
v 4.245090 0.883162 -3.650049
v 5.074862 -0.301951 -4.485317
v 4.539594 0.708803 -4.780629
vt 0.125000 0.750000
vt 0.125000 0.500000
vt 0.250000 0.500000
vt 0.250000 0.750000
vt 0.375000 0.500000
vt 0.375000 0.750000
vt 0.500000 0.500000
vt 0.500000 0.750000
vt 0.625000 0.500000
vt 0.625000 0.750000
vt 0.750000 0.500000
vt 0.750000 0.750000
vt 0.875000 0.500000
vt 0.875000 0.750000
vt 1.000000 0.500000
vt 1.000000 0.750000
vt 1.125000 0.500000
vt 1.125000 0.750000
vt 0.875000 0.750000
vt 1.000000 0.750000
vt 1.125000 0.750000
vt 1.250000 0.750000
vt 1.375000 0.750000
vt 1.500000 0.750000
vt 1.625000 0.750000
vt 1.750000 0.750000
vt 1.875000 0.750000
vt 0.875000 0.500000
vt 1.000000 0.500000
vt 1.125000 0.500000
vt 1.250000 0.500000
vt 1.375000 0.500000
vt 1.500000 0.500000
vt 1.625000 0.500000
vt 1.750000 0.500000
vt 1.875000 0.500000
vt 0.375000 0.500000
vt 0.500000 0.500000
vt 0.625000 0.500000
vt 0.750000 0.500000
vt 0.875000 0.500000
vt 1.000000 0.500000
vt 1.125000 0.500000
vt 1.250000 0.500000
vt 1.375000 0.500000
vt 0.625000 0.500000
vt 0.750000 0.500000
vt 0.875000 0.500000
vt 1.000000 0.500000
vt 1.125000 0.500000
vt 1.250000 0.500000
vt 1.375000 0.500000
vt 1.500000 0.500000
vt 1.625000 0.500000
vt 0.375000 0.750000
vt 0.500000 0.750000
vt 0.625000 0.750000
vt 0.750000 0.750000
vt 0.875000 0.750000
vt 1.000000 0.750000
vt 1.125000 0.750000
vt 1.250000 0.750000
vt 1.375000 0.750000
vt 0.625000 0.750000
vt 0.750000 0.750000
vt 0.875000 0.750000
vt 1.000000 0.750000
vt 1.125000 0.750000
vt 1.250000 0.750000
vt 1.375000 0.750000
vt 1.500000 0.750000
vt 1.625000 0.750000
vn -0.0681 0.9839 -0.1652
vn -0.1636 0.9844 -0.0654
vn -0.1606 0.9843 0.0726
vn -0.0609 0.9839 0.1681
vn 0.0772 0.9832 0.1652
vn 0.1727 0.9828 0.0654
vn 0.1697 0.9828 -0.0726
vn 0.0700 0.9833 -0.1681
vn -0.3999 0.1458 -0.9049
vn -0.9224 0.1482 -0.3566
vn -0.9042 0.1481 0.4006
vn -0.3559 0.1456 0.9231
vn 0.4013 0.1421 0.9049
vn 0.9238 0.1396 0.3566
vn 0.9055 0.1397 -0.4006
vn 0.3572 0.1423 -0.9231
vn 0.0809 -0.9856 0.1486
vn 0.1610 -0.9859 0.0447
vn 0.1441 -0.9859 -0.0855
vn 0.0401 -0.9854 -0.1655
vn -0.0900 -0.9848 -0.1486
vn -0.1701 -0.9844 -0.0447
vn -0.1532 -0.9845 0.0855
vn -0.0493 -0.9850 0.1655
vn 0.4850 -0.0963 0.8692
vn 0.9574 -0.0985 0.2714
vn 0.8687 -0.0981 -0.4854
vn 0.2709 -0.0953 -0.9579
vn -0.4859 -0.0918 -0.8692
vn -0.9583 -0.0896 -0.2714
vn -0.8696 -0.0900 0.4854
vn -0.2718 -0.0928 0.9579
vn 0.2842 0.6773 0.6786
vn 0.6817 0.6754 0.2811
vn 0.6817 0.6754 -0.2811
vn 0.2842 0.6773 -0.6786
vn -0.2779 0.6799 -0.6786
vn -0.6754 0.6817 -0.2811
vn -0.6754 0.6817 0.2811
vn -0.2779 0.6799 0.6786
vn -0.3682 -0.6219 -0.6911
vn -0.7499 -0.6201 -0.2304
vn -0.6940 -0.6204 0.3653
vn -0.2333 -0.6225 0.7470
vn 0.3624 -0.6253 0.6911
vn 0.7441 -0.6271 0.2304
vn 0.6882 -0.6268 -0.3653
vn 0.2275 -0.6247 -0.7470
vn 0.3598 -0.1677 0.9178
vn 0.9032 -0.1703 0.3940
vn 0.9170 -0.1703 -0.3606
vn 0.3932 -0.1679 -0.9040
vn -0.3614 -0.1644 -0.9178
vn -0.9047 -0.1619 -0.3940
vn -0.9186 -0.1618 0.3606
vn -0.3948 -0.1642 0.9040
vn 0.0496 -0.9808 0.1888
vn 0.1672 -0.9813 0.0952
vn 0.1842 -0.9814 -0.0541
vn 0.0907 -0.9810 -0.1718
vn -0.0587 -0.9803 -0.1888
vn -0.1763 -0.9797 -0.0952
vn -0.1933 -0.9796 0.0541
vn -0.0998 -0.9801 0.1718
vn -0.0627 0.9831 -0.1721
vn -0.1646 0.9836 -0.0741
vn -0.1675 0.9836 0.0672
vn -0.0695 0.9831 0.1692
vn 0.0718 0.9825 0.1721
vn 0.1738 0.9820 0.0741
vn 0.1766 0.9820 -0.0672
vn 0.0787 0.9824 -0.1692
vn 0.2569 -0.2206 0.9409
vn 0.8467 -0.2233 0.4830
vn 0.9399 -0.2237 -0.2579
vn 0.4819 -0.2216 -0.8477
vn -0.2589 -0.2182 -0.9409
vn -0.8487 -0.2154 -0.4830
vn -0.9419 -0.2150 0.2579
vn -0.4840 -0.2171 0.8477
vn -0.1963 -0.7262 -0.6589
vn -0.6057 -0.7243 -0.3294
vn -0.6622 -0.7240 0.1930
vn -0.3328 -0.7256 0.6023
vn 0.1896 -0.7280 0.6589
vn 0.5989 -0.7299 0.3294
vn 0.6555 -0.7302 -0.1930
vn 0.3261 -0.7286 -0.6023
usemtl Material.003
s off
f 1/1/1 3/2/1 11/3/1 9/4/1
f 9/4/2 11/3/2 19/5/2 17/6/2
f 17/6/3 19/5/3 27/7/3 25/8/3
f 25/8/4 27/7/4 35/9/4 33/10/4
f 33/10/5 35/9/5 43/11/5 41/12/5
f 41/12/6 43/11/6 51/13/6 49/14/6
f 49/14/7 51/13/7 59/15/7 57/16/7
f 57/16/8 59/15/8 3/17/8 1/18/8
f 2/19/9 1/1/9 9/4/9 10/20/9
f 10/20/10 9/4/10 17/6/10 18/21/10
f 18/21/11 17/6/11 25/8/11 26/22/11
f 26/22/12 25/8/12 33/10/12 34/23/12
f 34/23/13 33/10/13 41/12/13 42/24/13
f 42/24/14 41/12/14 49/14/14 50/25/14
f 50/25/15 49/14/15 57/16/15 58/26/15
f 58/26/16 57/16/16 1/18/16 2/27/16
f 4/28/17 2/19/17 10/20/17 12/29/17
f 12/29/18 10/20/18 18/21/18 20/30/18
f 20/30/19 18/21/19 26/22/19 28/31/19
f 28/31/20 26/22/20 34/23/20 36/32/20
f 36/32/21 34/23/21 42/24/21 44/33/21
f 44/33/22 42/24/22 50/25/22 52/34/22
f 52/34/23 50/25/23 58/26/23 60/35/23
f 60/35/24 58/26/24 2/27/24 4/36/24
f 3/2/25 4/28/25 12/29/25 11/3/25
f 11/3/26 12/29/26 20/30/26 19/5/26
f 19/5/27 20/30/27 28/31/27 27/7/27
f 27/7/28 28/31/28 36/32/28 35/9/28
f 35/9/29 36/32/29 44/33/29 43/11/29
f 43/11/30 44/33/30 52/34/30 51/13/30
f 51/13/31 52/34/31 60/35/31 59/15/31
f 59/15/32 60/35/32 4/36/32 3/17/32
f 3/2/33 7/37/33 15/38/33 11/3/33
f 11/3/34 15/38/34 23/39/34 19/5/34
f 19/5/35 23/39/35 31/40/35 27/7/35
f 27/7/36 31/40/36 39/41/36 35/9/36
f 35/9/37 39/41/37 47/42/37 43/11/37
f 43/11/38 47/42/38 55/43/38 51/13/38
f 51/13/39 55/43/39 63/44/39 59/15/39
f 59/15/40 63/44/40 7/45/40 3/17/40
f 8/46/41 4/28/41 12/29/41 16/47/41
f 16/47/42 12/29/42 20/30/42 24/48/42
f 24/48/43 20/30/43 28/31/43 32/49/43
f 32/49/44 28/31/44 36/32/44 40/50/44
f 40/50/45 36/32/45 44/33/45 48/51/45
f 48/51/46 44/33/46 52/34/46 56/52/46
f 56/52/47 52/34/47 60/35/47 64/53/47
f 64/53/48 60/35/48 4/36/48 8/54/48
f 7/37/49 8/46/49 16/47/49 15/38/49
f 15/38/50 16/47/50 24/48/50 23/39/50
f 23/39/51 24/48/51 32/49/51 31/40/51
f 31/40/52 32/49/52 40/50/52 39/41/52
f 39/41/53 40/50/53 48/51/53 47/42/53
f 47/42/54 48/51/54 56/52/54 55/43/54
f 55/43/55 56/52/55 64/53/55 63/44/55
f 63/44/56 64/53/56 8/54/56 7/45/56
f 7/37/57 5/55/57 13/56/57 15/38/57
f 15/38/58 13/56/58 21/57/58 23/39/58
f 23/39/59 21/57/59 29/58/59 31/40/59
f 31/40/60 29/58/60 37/59/60 39/41/60
f 39/41/61 37/59/61 45/60/61 47/42/61
f 47/42/62 45/60/62 53/61/62 55/43/62
f 55/43/63 53/61/63 61/62/63 63/44/63
f 63/44/64 61/62/64 5/63/64 7/45/64
f 6/64/65 8/46/65 16/47/65 14/65/65
f 14/65/66 16/47/66 24/48/66 22/66/66
f 22/66/67 24/48/67 32/49/67 30/67/67
f 30/67/68 32/49/68 40/50/68 38/68/68
f 38/68/69 40/50/69 48/51/69 46/69/69
f 46/69/70 48/51/70 56/52/70 54/70/70
f 54/70/71 56/52/71 64/53/71 62/71/71
f 62/71/72 64/53/72 8/54/72 6/72/72
f 5/55/73 6/64/73 14/65/73 13/56/73
f 13/56/74 14/65/74 22/66/74 21/57/74
f 21/57/75 22/66/75 30/67/75 29/58/75
f 29/58/76 30/67/76 38/68/76 37/59/76
f 37/59/77 38/68/77 46/69/77 45/60/77
f 45/60/78 46/69/78 54/70/78 53/61/78
f 53/61/79 54/70/79 62/71/79 61/62/79
f 61/62/80 62/71/80 6/72/80 5/63/80
f 5/55/81 1/1/81 9/4/81 13/56/81
f 13/56/82 9/4/82 17/6/82 21/57/82
f 21/57/83 17/6/83 25/8/83 29/58/83
f 29/58/84 25/8/84 33/10/84 37/59/84
f 37/59/85 33/10/85 41/12/85 45/60/85
f 45/60/86 41/12/86 49/14/86 53/61/86
f 53/61/87 49/14/87 57/16/87 61/62/87
f 61/62/88 57/16/88 1/18/88 5/63/88
f 2/19/33 6/64/33 14/65/33 10/20/33
f 10/20/34 14/65/34 22/66/34 18/21/34
f 18/21/35 22/66/35 30/67/35 26/22/35
f 26/22/36 30/67/36 38/68/36 34/23/36
f 34/23/37 38/68/37 46/69/37 42/24/37
f 42/24/38 46/69/38 54/70/38 50/25/38
f 50/25/39 54/70/39 62/71/39 58/26/39
f 58/26/40 62/71/40 6/72/40 2/27/40
